<?xml version="1.0" encoding="UTF-8" standalone="no"?>
<!DOCTYPE svg PUBLIC "-//W3C//DTD SVG 1.1//EN" "http://www.w3.org/Graphics/SVG/1.1/DTD/svg11.dtd">
<svg width="100%" height="100%" viewBox="0 0 2048 2048" version="1.1" xmlns="http://www.w3.org/2000/svg" xmlns:xlink="http://www.w3.org/1999/xlink" xml:space="preserve" xmlns:serif="http://www.serif.com/" style="fill-rule:evenodd;clip-rule:evenodd;stroke-linejoin:round;stroke-miterlimit:2;">
    <g transform="matrix(15.6336,0,0,20.0784,-1281.95,-1285.02)">
        <ellipse cx="147.5" cy="115" rx="65.5" ry="51" style="fill:white;"/>
    </g>
    <g transform="matrix(1,0,0,1,-7,-23)">
        <g transform="matrix(2048,0,0,2048,178,1780)">
            <path d="M0.709,-0.104C0.737,-0.085 0.755,-0.073 0.763,-0.068C0.776,-0.061 0.793,-0.053 0.814,-0.043L0.753,0.081C0.722,0.066 0.691,0.048 0.661,0.027C0.631,0.006 0.61,-0.009 0.598,-0.02C0.549,0.002 0.488,0.012 0.414,0.012C0.305,0.012 0.22,-0.016 0.157,-0.073C0.083,-0.14 0.045,-0.234 0.045,-0.355C0.045,-0.473 0.078,-0.565 0.143,-0.63C0.208,-0.695 0.299,-0.728 0.415,-0.728C0.534,-0.728 0.626,-0.696 0.69,-0.632C0.755,-0.569 0.787,-0.477 0.787,-0.358C0.787,-0.253 0.761,-0.168 0.709,-0.104ZM0.54,-0.218C0.557,-0.249 0.566,-0.297 0.566,-0.359C0.566,-0.432 0.552,-0.483 0.526,-0.514C0.499,-0.545 0.462,-0.561 0.415,-0.561C0.371,-0.561 0.335,-0.545 0.308,-0.513C0.28,-0.482 0.267,-0.432 0.267,-0.365C0.267,-0.287 0.28,-0.232 0.307,-0.201C0.333,-0.169 0.37,-0.153 0.417,-0.153C0.431,-0.153 0.446,-0.155 0.459,-0.158C0.44,-0.176 0.411,-0.193 0.371,-0.208L0.406,-0.288C0.425,-0.285 0.441,-0.28 0.451,-0.275C0.462,-0.27 0.484,-0.256 0.515,-0.234C0.523,-0.229 0.531,-0.223 0.54,-0.218Z" style="fill:rgb(157,231,215);fill-rule:nonzero;"/>
        </g>
    </g>
</svg>
